<mxfile host="65bd71144e">
    <diagram name="Page-1" id="jJ7n3A1it99_hdllu_8M">
        <mxGraphModel dx="3786" dy="1102" grid="1" gridSize="10" guides="1" tooltips="1" connect="1" arrows="1" fold="1" page="1" pageScale="1" pageWidth="1654" pageHeight="1169" math="0" shadow="0">
            <root>
                <mxCell id="0"/>
                <mxCell id="1" parent="0"/>
                <mxCell id="_tZKHd5Szc6mgcDDZj10-1" value="" style="rounded=1;whiteSpace=wrap;html=1;fillColor=light-dark(#1D3461,#FF8000);strokeColor=none;" parent="1" vertex="1">
                    <mxGeometry x="-1567" y="395" width="1480" height="380" as="geometry"/>
                </mxCell>
                <mxCell id="_tZKHd5Szc6mgcDDZj10-7" value="&lt;div style=&quot;&quot;&gt;&lt;font style=&quot;color: light-dark(rgb(255, 255, 255), rgb(237, 237, 237)); font-size: 110px;&quot; data-font-src=&quot;https://fonts.googleapis.com/css?family=Gochi+Hand&quot; face=&quot;Gochi Hand&quot;&gt;Transnet Port Statistics&lt;/font&gt;&lt;/div&gt;" style="text;html=1;align=center;verticalAlign=middle;whiteSpace=wrap;rounded=0;" parent="1" vertex="1">
                    <mxGeometry x="-1562" y="530" width="1470" height="110" as="geometry"/>
                </mxCell>
            </root>
        </mxGraphModel>
    </diagram>
</mxfile>
